<?xml version="1.0" encoding="utf-8"?>
<!-- Generator: Adobe Illustrator 23.0.0, SVG Export Plug-In . SVG Version: 6.00 Build 0)  -->
<svg version="1.1" id="Layer_1" xmlns="http://www.w3.org/2000/svg" xmlns:xlink="http://www.w3.org/1999/xlink" x="0px" y="0px"
	 viewBox="0 0 64 64" style="enable-background:new 0 0 64 64;" xml:space="preserve">
<path d="M62.6,28.3l-7.5-8.8c-1.1-1.1-2.7-1.3-3.7-0.3c-1.1,1.1-1.3,2.7-0.3,3.7l5.3,6.4H2.7c-1.6,0-2.7,1.1-2.7,2.7
	s1.1,2.7,2.7,2.7h53.8l-5.3,6.4c-1.1,1.1-0.8,2.9,0.3,3.7c0.5,0.5,1.1,0.5,1.6,0.5c0.8,0,1.6-0.3,2.1-1.1l7.5-8.8
	C64.5,33.7,64.5,30.5,62.6,28.3z"/>
</svg>
