<?xml version="1.0" encoding="utf-8"?>
<!-- Generator: Adobe Illustrator 23.0.0, SVG Export Plug-In . SVG Version: 6.00 Build 0)  -->
<svg version="1.1" id="Layer_1" xmlns="http://www.w3.org/2000/svg" xmlns:xlink="http://www.w3.org/1999/xlink" x="0px" y="0px"
	 viewBox="0 0 64 64" style="enable-background:new 0 0 64 64;" xml:space="preserve">
<path d="M61.3,29.4h-54l5.3-6.4c1.1-1.1,0.8-2.9-0.3-3.7c-1.1-1.1-2.9-0.8-3.7,0.3l-7.5,8.8c-1.6,2.1-1.6,5.1,0,7.2l7.5,8.8
	c0.3,0.8,1.1,1.1,1.9,1.1c0.5,0,1.3-0.3,1.6-0.5c1.1-1.1,1.3-2.7,0.3-3.7l-5.3-6.4h54.2c1.6,0,2.7-1.1,2.7-2.7
	C64,30.5,62.9,29.4,61.3,29.4z"/>
</svg>
