<?xml version="1.0" encoding="utf-8"?>
<!-- Generator: Adobe Illustrator 23.0.0, SVG Export Plug-In . SVG Version: 6.00 Build 0)  -->
<svg version="1.1" id="Layer_2_1_" xmlns="http://www.w3.org/2000/svg" xmlns:xlink="http://www.w3.org/1999/xlink" x="0px" y="0px"
	 viewBox="0 0 64 64" style="enable-background:new 0 0 64 64;" xml:space="preserve">
<path d="M47.7,6.7L47.7,6.7C42.9,2.1,36.8-0.2,30.4,0C18.5,0.8,8.9,11.2,8.9,23.6c0,8,3.5,15.4,9.6,19.9v11.2c0,5,4,9.3,9,9.3h8.8
	c4.8,0,9-4,9-9.3V43.6c6.1-4.5,9.8-11.7,9.8-19.6C54.8,17.5,52.4,11.2,47.7,6.7z M36,58.4h-8.8c-2.1,0-3.7-1.6-3.7-4v-9.3h15.9v9.3
	C39.7,56.8,38.1,58.4,36,58.4z M41,39.8L41,39.8h-6.6v-7.7l5.8-4.5c1.1-0.8,1.3-2.7,0.5-3.7c-0.8-1.1-2.7-1.3-3.7-0.5l-2.7,2.1v-4.2
	c0-1.6-1.1-2.7-2.7-2.7c-1.6,0-2.7,1.1-2.7,2.7v4.5l-3.7-2.4c-1.3-0.8-2.9-0.5-3.7,0.8c-0.8,1.3-0.5,2.9,0.8,3.7l6.6,4.5v7.4h-6.6
	c-5.3-3.5-8.5-9.6-8.5-16.2c0-9.8,7.4-17.8,16.5-18.3c0.3,0,0.8,0,1.1,0c4.5,0,9,1.9,12.2,5c3.5,3.7,5.6,8.5,5.6,13.5
	C49.5,30.5,46.3,36.4,41,39.8z"/>
</svg>
