<?xml version="1.0" encoding="utf-8"?>
<!-- Generator: Adobe Illustrator 23.0.0, SVG Export Plug-In . SVG Version: 6.00 Build 0)  -->
<svg version="1.1" id="Layer_1" xmlns="http://www.w3.org/2000/svg" xmlns:xlink="http://www.w3.org/1999/xlink" x="0px" y="0px"
	 viewBox="0 0 64 64" style="enable-background:new 0 0 64 64;" xml:space="preserve">
<g>
	<path d="M58.7,0H5.3C2.4,0,0,2.4,0,5.3v53.3C0,61.6,2.4,64,5.3,64h53.3c2.9,0,5.3-2.4,5.3-5.3V5.3C64,2.4,61.6,0,58.7,0z
		 M58.7,29.3h-24v-24h24V29.3z M29.3,5.3v24h-24v-24H29.3z M5.3,34.7h24v24h-24V34.7z M34.7,58.7v-24h24v24H34.7z"/>
	<path d="M13.3,21.3H16V24c0,1.6,1.1,2.7,2.7,2.7c1.6,0,2.7-1.1,2.7-2.7v-2.7H24c1.6,0,2.7-1.1,2.7-2.7c0-1.6-1.1-2.7-2.7-2.7h-2.7
		v-2.7c0-1.6-1.1-2.7-2.7-2.7c-1.6,0-2.7,1.1-2.7,2.7V16h-2.7c-1.6,0-2.7,1.1-2.7,2.7C10.7,20.3,11.7,21.3,13.3,21.3z"/>
	<path d="M42.9,17.3l-2.1,2.1c-1.1,1.1-1.1,2.7,0,3.7c0.5,0.5,1.3,0.8,1.9,0.8s1.3-0.3,1.9-0.8l2.1-2.1l2.1,2.1
		c0.5,0.5,1.3,0.8,1.9,0.8c0.5,0,1.3-0.3,1.9-0.8c1.1-1.1,1.1-2.7,0-3.7l-2.1-2.1l2.1-2.1c1.1-1.1,1.1-2.7,0-3.7s-2.7-1.1-3.7,0
		l-2.1,2.1l-2.1-2.1c-1.1-1.1-2.7-1.1-3.7,0s-1.1,2.7,0,3.7L42.9,17.3z"/>
	<path d="M21.3,42.7h-8c-1.6,0-2.7,1.1-2.7,2.7c0,1.6,1.1,2.7,2.7,2.7h8c1.6,0,2.7-1.1,2.7-2.7C24,43.7,22.9,42.7,21.3,42.7z"/>
	<path d="M52.5,40.8c-1.1-1.1-2.7-1.1-3.7,0l-8,8c-1.1,1.1-1.1,2.7,0,3.7c0.5,0.5,1.3,0.8,1.9,0.8s1.3-0.3,1.9-0.8l8-8
		C53.6,43.5,53.6,41.9,52.5,40.8z"/>
</g>
</svg>
