<?xml version="1.0" encoding="utf-8"?>
<!-- Generator: Adobe Illustrator 21.0.2, SVG Export Plug-In . SVG Version: 6.00 Build 0)  -->
<svg version="1.1" id="Layer_1" xmlns="http://www.w3.org/2000/svg" xmlns:xlink="http://www.w3.org/1999/xlink" x="0px" y="0px"
	 viewBox="0 0 64 64" style="enable-background:new 0 0 64 64;" xml:space="preserve">
<path d="M40.8,29.3H24c-5.3,0-9.9-4.3-9.9-9.3s4.5-9.3,9.9-9.3h26.7c1.6,0,2.7-1.1,2.7-2.7s-1.1-2.7-2.7-2.7H37.3V2.7
	c0-1.6-1.1-2.7-2.7-2.7C33.1,0,32,1.1,32,2.7v2.7h-8C15.7,5.3,8.8,12,8.8,20S15.7,34.6,24,34.6h16.8c5.3,0,9.9,4.3,9.9,9.3
	s-4.5,9.3-9.9,9.3H10.7c-1.6,0-2.7,1.1-2.7,2.7c0,1.6,1.1,2.7,2.7,2.7H32v2.7c0,1.6,1.1,2.7,2.7,2.7c1.6,0,2.7-1.1,2.7-2.7v-2.7h3.5
	c8.2,0,15.1-6.7,15.1-14.7S49.1,29.3,40.8,29.3z"/>
</svg>
