<?xml version="1.0" encoding="utf-8"?>
<!-- Generator: Adobe Illustrator 21.0.2, SVG Export Plug-In . SVG Version: 6.00 Build 0)  -->
<svg version="1.1" id="Layer_1" xmlns="http://www.w3.org/2000/svg" xmlns:xlink="http://www.w3.org/1999/xlink" x="0px" y="0px"
	 viewBox="0 0 64 64" style="enable-background:new 0 0 64 64;" xml:space="preserve">
<path d="M32,0C17.3,0,5.3,11.2,5.3,25.3c0,12,18.4,32,24.3,37.6c0.6,0.7,1.6,1.1,2.4,1.1l0,0c1.1,0,1.6-0.3,2.4-1.1
	c5.9-5.9,24.3-25.6,24.3-37.6C58.7,11.2,46.7,0,32,0z M32.7,57.1c-0.4,0.4-1.1,0.4-1.5,0c-10.6-11.4-20.6-25-20.6-31.8
	c0-11.2,9.6-20,21.3-20s21.3,8.8,21.3,20C53.3,32.1,43.4,45.8,32.7,57.1z"/>
<path d="M31.7,34.2c-1.3,0-2.4-0.5-3.2-1.3c-0.8-1.1-2.7-1.3-3.7-0.5c-1.1,0.8-1.3,2.7-0.5,3.7c1.1,1.6,2.9,2.7,4.8,3.2l0,0.3
	c0,1.4,1.1,2.7,2.6,2.7c1.7,0.1,2.8-1.1,2.8-2.7V39c1.9-0.8,3.5-2.1,4.2-3.7c1.1-2.7,0.3-5.8-2.4-8c-1.1-0.8-4-2.6-4.5-2.9
	c-0.2-0.2-0.4-0.3-0.6-0.4c-0.9-0.8-1-2.4,0-2.9c1.1-0.5,3.3,0.6,3.9,1.4c0.5,0.8,2.4,1.6,3.7,0.8c1.3-0.7,1.6-2.3,0.8-3.7
	c-1.1-1.6-3-2.9-4.8-3.4v-0.5c0-1.4-1.1-2.7-2.6-2.7c-1.7-0.1-2.8,1.1-2.8,2.7v0.5c-1.6,0.5-2.9,1.6-3.7,2.7
	c-1.1,1.3-1.3,3.2-1.1,4.8c0.5,1.9,1.9,3.7,4.2,5.3c0.5,0.3,3.5,2.2,4.3,2.7C35.3,33.3,32.5,34.2,31.7,34.2z"/>
</svg>
