<?xml version="1.0" encoding="utf-8"?>
<!-- Generator: Adobe Illustrator 21.0.2, SVG Export Plug-In . SVG Version: 6.00 Build 0)  -->
<svg version="1.1" id="Layer_1" xmlns="http://www.w3.org/2000/svg" xmlns:xlink="http://www.w3.org/1999/xlink" x="0px" y="0px"
	 viewBox="0 0 64 64" style="enable-background:new 0 0 64 64;" xml:space="preserve">
<g>
	<path d="M54.8,6.1L33.3,0.2c-0.8-0.3-1.9-0.3-2.9,0L9,6.1c-2.1,0.5-3.8,2.7-3.8,5.1v15.5c0,16.4,9.7,30.8,24.7,37
		C30.5,64,31.3,64,32,64s1.3,0,2.1-0.3c15-5.9,24.7-20.6,24.7-37V11.2C58.8,8.8,57.2,6.6,54.8,6.1z M53.4,26.7
		c0,13.9-8.6,26.8-21.4,32.2c-13.1-5.4-21.4-18-21.4-32.2V11.2L32,5.3l21.4,5.9V26.7z"/>
	<path d="M29.4,13.1v2.7h-1.1c-4.6,0-8,3.8-8,8s3.5,8,8,8h7.5c1.6,0,2.7,1.3,2.7,2.7c0,1.6-1.1,2.7-2.7,2.7H24.1
		c-1.6,0-2.7,1.1-2.7,2.7c0,1.6,1.1,2.7,2.7,2.7h5.4l0,0v2.7c0,1.6,1.1,2.7,2.7,2.7s2.7-1.1,2.7-2.7v-2.7l0,0h1.1c4.6,0,8-3.8,8-8
		c0-4.6-3.5-8-8-8h-7.5c-1.6,0-2.7-1.3-2.7-2.7c0-1.3,1.1-2.7,2.7-2.7H40c1.6,0,2.7-1.1,2.7-2.7c0-1.6-1.1-2.7-2.7-2.7h-5.4v-2.7
		c0-1.6-1.1-2.7-2.7-2.7C30.5,10.4,29.4,11.7,29.4,13.1z"/>
</g>
</svg>
