<?xml version="1.0" encoding="utf-8"?>
<!-- Generator: Adobe Illustrator 23.0.0, SVG Export Plug-In . SVG Version: 6.00 Build 0)  -->
<svg version="1.1" id="Layer_1" xmlns="http://www.w3.org/2000/svg" xmlns:xlink="http://www.w3.org/1999/xlink" x="0px" y="0px"
	 viewBox="0 0 64 64" style="enable-background:new 0 0 64 64;" xml:space="preserve">
<g>
	<circle cx="33.5" cy="7.5" r="7.5"/>
	<circle cx="33.5" cy="59.8" r="4.2"/>
	<path d="M59.7,30.9c-1.4,0-2.8,1.1-2.8,2.8s1.1,2.8,2.8,2.8c1.7,0,2.8-1.1,2.8-2.8S61.1,30.9,59.7,30.9z"/>
	<path d="M12.7,33.7c0-3.1-2.5-5.6-5.6-5.6s-5.6,2.5-5.6,5.6s2.5,5.6,5.6,5.6S12.7,36.7,12.7,33.7z"/>
	<circle cx="52.2" cy="52" r="3.3"/>
	<path d="M10.7,10.9c-2.5,2.5-2.5,6.1,0,8.6s6.1,2.5,8.6,0s2.5-6.1,0-8.6S13.2,8.3,10.7,10.9z"/>
	<path d="M53.6,16.7c0.8-0.8,0.8-2.2,0-2.8c-0.8-0.8-2.2-0.8-2.8,0c-0.8,0.8-0.8,2.2,0,2.8C51.3,17.5,52.7,17.5,53.6,16.7z"/>
	<circle cx="14.9" cy="52" r="4.7"/>
</g>
</svg>
