<?xml version="1.0" encoding="utf-8"?>
<!-- Generator: Adobe Illustrator 23.0.0, SVG Export Plug-In . SVG Version: 6.00 Build 0)  -->
<svg version="1.1" id="Layer_1" xmlns="http://www.w3.org/2000/svg" xmlns:xlink="http://www.w3.org/1999/xlink" x="0px" y="0px"
	 viewBox="0 0 64 64" style="enable-background:new 0 0 64 64;" xml:space="preserve">
<path d="M59.7,20.9h-1.1V10c0-1.3-0.5-2.7-1.9-3.5c-1.1-0.8-2.4-1.1-3.7-0.5L2.9,20.9c-0.5,0.3-1.1,0.5-1.3,0.8
	C0.5,22.5,0,23.6,0,24.9V54c0,2.4,1.9,4.3,4.3,4.3h55.5c2.4,0,4.3-1.9,4.3-4.3V25.2C64,22.8,62.1,20.9,59.7,20.9z M53.3,11.3v9.6
	H21.6L53.3,11.3z M5.3,52.9V26.3h53.3v5.3H46.9c-4.5,0-8,3.5-8,8s3.5,8,8,8h11.7v5.3H5.3z M58.7,36.9v5.3H46.9
	c-1.6,0-2.7-1.1-2.7-2.7c0-1.6,1.1-2.7,2.7-2.7H58.7z"/>
</svg>
